<svg width="66" height="80" viewBox="0 0 66 80" fill="none" xmlns="http://www.w3.org/2000/svg">
<path d="M63.4268 61.2229C63.0323 60.4339 62.6378 59.6448 62.6378 58.8558C62.6378 57.2777 61.8487 56.0941 60.6651 54.9105C60.2706 54.516 59.4816 54.1215 59.0871 54.1215C61.4542 47.02 57.9035 39.9185 53.9582 34.7897C50.802 30.0554 46.0677 26.5047 46.4622 20.1923C46.4622 12.6963 47.2513 -1.11213 33.4429 0.071449C19.24 0.8605 23.1852 15.4579 22.7907 20.5868C22.7907 24.9266 20.8181 29.2663 17.6619 32.8171C16.8728 33.6061 16.0838 34.7897 15.6892 35.5788C11.744 40.3131 9.77135 46.6255 9.77135 52.5434C8.9823 53.3324 8.19325 54.1215 7.79872 54.9105C7.4042 55.305 7.00967 55.6996 7.00967 56.0941C6.61515 56.4886 5.8261 56.8831 5.03704 57.2777C3.45894 57.6722 2.27536 58.4612 1.48631 60.0393C1.09179 61.2229 0.697263 62.801 1.09179 64.3791C1.48631 65.1682 1.48631 65.9572 1.09179 67.1408C0.302737 68.7189 0.302737 70.6915 1.09179 72.6642C2.27537 74.2423 4.24799 74.6368 7.00967 75.0313C8.9823 75.0313 11.3495 75.8204 13.3221 76.6094C15.2947 77.793 17.6619 78.582 20.029 78.582C21.2126 78.582 22.7907 78.1875 23.9743 77.793C25.1578 77.0039 25.9469 76.2149 26.3414 75.0313C27.9195 75.0313 30.2867 74.2423 33.0484 74.2423C35.4155 74.2423 37.7827 75.0313 40.9389 74.6368C40.9389 75.0313 40.9389 75.4258 41.3334 75.8204C42.1224 77.793 44.0951 79.3711 46.4622 79.7656H47.2513C50.4075 79.3711 53.5637 77.793 55.5363 75.4258C57.1144 73.8477 59.0871 72.6642 61.0597 71.8751C63.4268 70.6915 65.0049 69.9025 65.3995 67.9298C65.794 65.1682 65.0049 63.5901 63.4268 61.2229ZM36.2046 10.7236C38.5717 11.1182 40.5443 13.0908 40.1498 15.4579C40.1498 16.6415 39.7553 17.8251 38.9662 19.0087H38.5717C37.7827 18.6142 37.3881 18.6142 36.9936 18.2196C37.3881 17.8251 37.3881 17.0361 37.7827 16.247C37.7827 14.6689 36.9936 13.4853 36.2046 13.4853C35.021 13.4853 34.2319 14.6689 34.2319 16.247V16.6415C33.8374 16.247 33.0484 16.247 32.6538 15.8525V15.4579C32.2593 13.4853 33.8374 11.1182 36.2046 10.7236ZM35.021 18.6142C35.4155 19.0087 36.2046 19.4032 36.5991 19.4032C36.9936 19.4032 37.7827 19.7977 38.1772 20.1923C38.9662 20.5868 39.7553 20.9813 39.7553 22.1649C39.7553 23.3485 38.5717 24.532 36.2046 25.3211C35.4155 25.7156 35.021 25.7156 34.6265 26.1101C33.4429 26.8992 32.2593 27.2937 30.6812 27.2937C29.4976 27.2937 28.3141 26.5047 27.525 25.7156C27.1305 25.3211 26.736 24.9266 25.9469 24.532C25.5524 24.1375 24.7633 23.3485 24.3688 22.1649C24.3688 21.7704 24.7633 21.3758 25.1578 20.9813C26.3414 20.1923 26.736 19.7977 27.1305 19.4032L27.525 19.0087C28.3141 17.8251 29.8922 17.0361 31.4703 17.0361C32.6538 17.4306 33.8374 17.8251 35.021 18.6142ZM26.7359 11.5127C28.3141 11.5127 29.4976 13.0908 29.8922 15.8525V16.6415C29.4976 16.6415 28.7086 17.0361 28.3141 17.4306V16.6415C28.3141 15.4579 27.525 14.2744 26.7359 14.6689C25.9469 14.6689 25.5524 15.8525 25.5524 17.0361C25.5524 17.8251 25.9469 18.2196 26.3414 18.6142C26.3414 18.6142 25.9469 19.0087 25.5524 19.0087C24.7633 18.2196 23.9743 17.0361 23.9743 15.8525C23.9743 13.4853 25.1578 11.5127 26.7359 11.5127ZM22.7907 75.0313C20.029 76.2149 16.4783 75.8204 14.1111 74.2423C11.744 73.0587 9.77135 72.6642 7.00967 72.6642C5.03704 72.2696 3.06442 72.2696 2.66989 71.4806C2.27537 70.6915 2.27536 69.508 3.06442 67.5353C3.45894 66.3518 3.45894 65.1682 3.06442 63.9846C2.66989 62.801 2.66989 62.012 3.06442 60.8284C3.45894 59.6448 4.24799 59.2503 5.43157 58.8558C6.61515 58.4612 7.4042 58.0667 8.19325 57.2777C8.58777 56.8831 8.9823 56.4886 9.37683 55.6996C10.5604 54.1215 11.3495 53.3324 12.533 53.3324C14.9002 53.7269 16.8728 57.2777 18.4509 60.8284C19.24 62.012 20.029 63.5901 21.2126 64.7736C22.7907 66.7463 24.7633 69.508 24.7633 71.0861C24.7633 73.0587 23.9743 74.2423 22.7907 75.0313ZM42.1224 66.3517C42.1224 66.7463 42.1224 66.7463 41.7279 67.1408C36.9936 70.6915 30.6812 71.0861 25.5524 68.3244L23.1852 64.7736C26.736 64.3791 25.9469 59.6448 18.4509 54.9105C10.5604 49.7817 16.0838 40.3131 18.8454 35.9733C19.24 35.5788 19.24 35.9733 17.6619 39.1295C16.4783 41.4966 14.1111 47.4145 17.2673 51.7543C17.2673 48.5981 18.0564 45.4419 19.24 42.2857C22.0016 37.1569 23.9743 31.239 25.1578 25.3211C25.5524 25.7156 25.5524 25.7156 25.9469 25.7156C26.3414 26.1101 26.736 26.5047 27.1305 26.5047C27.9195 27.6882 29.4976 28.0828 30.6812 28.0828H31.0757C32.6538 28.0828 34.2319 27.6882 35.4155 26.5047C35.81 26.1101 36.2046 25.7156 36.9936 25.7156C38.1772 25.3211 39.3608 24.532 40.5443 23.3485C42.1224 28.4773 43.7006 33.2116 46.0677 37.5514C47.6458 40.7076 48.8294 43.8638 49.6184 47.4145C50.802 47.4145 52.3801 47.809 53.5637 48.5981C56.7199 50.1762 57.9035 51.3598 57.5089 53.3324H56.7199C56.7199 52.1488 55.9308 50.9652 53.1692 49.7817C50.4075 48.5981 48.0403 48.5981 47.2513 51.3598C46.8568 51.3598 46.4622 51.7543 46.0677 51.7543C42.9115 53.3324 42.9115 57.6722 42.517 62.012C42.9115 63.5901 42.517 64.7736 42.1224 66.3517ZM60.2706 68.7189C57.9035 69.508 55.9308 71.0861 54.3527 73.0587C52.7746 75.4258 50.013 77.0039 46.8568 76.6094C45.2787 76.6094 43.7006 75.4258 43.306 73.8477C42.9115 71.4806 42.9115 69.1134 44.0951 66.7463C44.4896 65.1682 44.8841 63.9846 45.2787 62.4065C45.6732 57.6722 45.6732 54.9105 47.6458 53.7269C47.6458 55.6996 48.8294 56.8831 50.4075 57.6722C52.3801 57.6722 54.3527 57.2777 55.9308 55.6996H56.7199C57.9035 55.6996 58.6925 55.6996 59.4816 56.4886C60.2706 57.2777 60.6651 58.4612 60.6651 59.2503C60.6651 60.4339 61.4542 61.6174 61.8487 62.801C63.8214 64.7736 63.8214 65.9572 63.8214 66.3517C63.4268 67.1408 61.8487 67.9298 60.2706 68.7189ZM24.7633 21.3758C24.3688 21.3758 24.3688 21.3758 24.3688 21.7704C24.3688 21.7704 24.3688 22.1649 24.7633 22.1649C25.1578 22.1649 25.1578 22.5594 25.1578 22.5594C26.3414 24.1375 28.3141 24.9266 30.6812 25.3211C32.6538 24.9266 34.6265 24.532 36.5991 22.9539L38.9662 21.7704C39.3608 21.7704 39.3608 21.3758 39.3608 21.3758C39.3608 20.9813 39.3608 20.9813 38.9662 20.9813C38.1772 21.3758 36.9936 21.7704 36.2046 22.1649C34.6265 23.3485 32.6538 24.1375 30.6812 24.1375C28.7086 24.1375 27.1305 22.9539 25.9469 21.7704C25.5524 21.7704 25.1578 21.3758 24.7633 21.3758Z" fill="#F1F1F1"/>
</svg>
