<svg width="68" height="84" viewBox="0 0 68 84" fill="none" xmlns="http://www.w3.org/2000/svg">
<path d="M33.6666 26C51.3397 26 65.6666 20.6274 65.6666 14C65.6666 7.37258 51.3397 2 33.6666 2C15.9935 2 1.66663 7.37258 1.66663 14C1.66663 20.6274 15.9935 26 33.6666 26Z" stroke="#F1F1F1" stroke-width="3" stroke-linecap="round" stroke-linejoin="round"/>
<path d="M13.6666 37.3682C16.0746 38.0882 18.7626 38.6882 21.6666 39.1282M65.6666 42.0002C65.6666 48.6282 51.3386 54.0002 33.6666 54.0002C15.9946 54.0002 1.66663 48.6282 1.66663 42.0002M13.6666 65.3682C16.0746 66.0882 18.7626 66.6882 21.6666 67.1282" stroke="#F1F1F1" stroke-width="3" stroke-linecap="round" stroke-linejoin="round"/>
<path d="M65.6666 14V70C65.6666 76.628 51.3386 82 33.6666 82C15.9946 82 1.66663 76.628 1.66663 70V14" stroke="#F1F1F1" stroke-width="3" stroke-linecap="round" stroke-linejoin="round"/>
</svg>
